# Blender 4.3.1
# www.blender.org
mtllib Frame.mtl
o Frame
v -1.000000 -0.988677 -0.001491
v 1.000000 -0.988677 -0.001491
v -1.000000 1.011323 -0.001491
v 1.000000 1.011323 -0.001491
v -1.000000 1.011323 -0.001491
v -1.000000 -0.988677 -0.001491
v 1.000000 -0.988677 -0.001491
v 1.000000 1.011323 -0.001491
v -1.000000 1.011323 -0.001491
v -1.000000 -0.988677 -0.001491
v 1.000000 -0.988677 -0.001491
v 1.000000 1.011323 -0.001491
v -1.000000 1.011323 -0.001491
v -1.000000 -0.988677 -0.001491
v 1.000000 -0.988677 -0.001491
v 1.000000 1.011323 -0.001491
v -1.000000 1.011323 0.098509
v -1.000000 -0.988677 0.098509
v 1.000000 -0.988677 0.098509
v 1.000000 1.011323 0.098509
v -1.000000 1.011323 0.098509
v -1.000000 -0.988677 0.098509
v 1.000000 -0.988677 0.098509
v 1.000000 1.011323 0.098509
v -0.800000 0.811323 0.098509
v -0.800000 -0.788677 0.098509
v 0.800000 -0.788677 0.098509
v 0.800000 0.811323 0.098509
v -0.800000 0.811323 0.048509
v -0.800000 -0.788677 0.048509
v 0.800000 -0.788677 0.048509
v 0.800000 0.811323 0.048509
vn -0.0000 -0.0000 -1.0000
vn -0.0000 0.2588 0.9659
vn -1.0000 -0.0000 -0.0000
vn -0.0000 1.0000 -0.0000
vn -0.0000 -1.0000 -0.0000
vn 1.0000 -0.0000 -0.0000
vn -0.0000 -0.0000 1.0000
vt 0.786147 0.205587
vt 0.766673 0.790991
vt 0.180230 0.794185
vt 0.198577 0.208833
vt 0.179294 0.795173
vt 0.767624 0.791893
vt 0.768479 0.792772
vt 0.178384 0.796061
vt 0.197625 0.207929
vt 0.787086 0.204597
vt 0.196768 0.207049
vt 0.177605 0.796912
vt 0.195949 0.206297
vt 0.787998 0.203707
vt 0.769297 0.793523
vt 0.788779 0.202855
vt 0.826697 0.164854
vt 0.806284 0.830727
vt 0.159716 0.169099
vt 0.138605 0.834984
vt 0.137500 0.835876
vt 0.158859 0.168034
vt 0.027937 0.973742
vt 0.026387 0.061150
vt 0.827800 0.163962
vt 0.807142 0.831792
vt 0.000000 1.000000
vt 0.001076 0.034186
vt 0.937229 0.026235
vt 0.939782 0.938743
vt 0.965128 -0.000000
vt 0.965128 0.965729
s 0
f 1/1/1 3/2/1 4/3/1 2/4/1
f 8/5/2 5/6/2 9/7/2 12/8/2
f 4/3/2 3/2/2 5/6/2 8/5/2
f 1/1/2 2/4/2 7/9/2 6/10/2
f 2/4/2 4/3/2 8/5/2 7/9/2
f 3/2/2 1/1/2 6/10/2 5/6/2
f 11/11/2 12/8/2 16/12/2 15/13/2
f 6/10/2 7/9/2 11/11/2 10/14/2
f 7/9/2 8/5/2 12/8/2 11/11/2
f 5/6/2 6/10/2 10/14/2 9/7/2
f 13/15/3 14/16/3 18/17/3 17/18/3
f 9/7/2 10/14/2 14/16/2 13/15/2
f 12/8/2 9/7/2 13/15/2 16/12/2
f 10/14/2 11/11/2 15/13/2 14/16/2
f 19/19/2 20/20/2 24/21/2 23/22/2
f 16/12/4 13/15/4 17/18/4 20/20/4
f 14/16/5 15/13/5 19/19/5 18/17/5
f 15/13/6 16/12/6 20/20/6 19/19/6
f 23/22/7 24/21/7 28/23/7 27/24/7
f 17/18/2 18/17/2 22/25/2 21/26/2
f 20/20/2 17/18/2 21/26/2 24/21/2
f 18/17/2 19/19/2 23/22/2 22/25/2
f 27/24/3 28/23/3 32/27/3 31/28/3
f 21/26/7 22/25/7 26/29/7 25/30/7
f 24/21/7 21/26/7 25/30/7 28/23/7
f 22/25/7 23/22/7 27/24/7 26/29/7
f 25/30/6 26/29/6 30/31/6 29/32/6
f 28/23/5 25/30/5 29/32/5 32/27/5
f 26/29/4 27/24/4 31/28/4 30/31/4
