# Blender 4.3.1
# www.blender.org
mtllib TempWall.mtl
o Cube
v 0.500000 -0.500000 -0.500000
v 0.500000 -0.500000 0.500000
v -0.500000 -0.500000 -0.500000
v -0.500000 -0.500000 0.500000
v 0.500000 0.500000 0.000000
v -0.500000 0.500000 0.000000
vn -0.0000 0.4472 -0.8944
vn -0.0000 -1.0000 -0.0000
vn -0.0000 0.4472 0.8944
vn 1.0000 -0.0000 -0.0000
vn -1.0000 -0.0000 -0.0000
vt 0.000000 0.000000
vt 0.375000 0.500000
vt 0.125000 0.500000
vt 0.375000 0.750000
vt 0.125000 0.750000
s 1
usemtl Material
f 6/1/1 5/1/1 1/2/1 3/3/1
f 3/3/2 1/2/2 2/4/2 4/5/2
f 5/1/3 6/1/3 4/5/3 2/4/3
f 5/1/4 2/4/4 1/2/4
f 4/5/5 6/1/5 3/3/5
